<?xml version="1.0" standalone="no"?>
<!DOCTYPE svg PUBLIC "-//W3C//DTD SVG 20010904//EN"
 "http://www.w3.org/TR/2001/REC-SVG-20010904/DTD/svg10.dtd">
<svg version="1.0" xmlns="http://www.w3.org/2000/svg"
 width="1652.000000pt" height="248.000000pt" viewBox="0 0 1652.000000 248.000000"
 preserveAspectRatio="xMidYMid meet">

<g transform="translate(0.000000,248.000000) scale(0.100000,-0.100000)"
fill="#000000" stroke="none">
<path d="M14162 1763 l3 -318 205 0 c193 0 207 1 247 22 75 41 111 114 98 202
-5 36 -16 55 -49 86 l-42 41 28 27 c75 75 31 216 -77 246 -23 6 -122 11 -228
11 l-187 0 2 -317z m346 165 c17 -17 15 -49 -4 -76 -13 -19 -24 -22 -90 -22
l-74 0 0 55 0 55 78 0 c47 0 83 -5 90 -12z m16 -244 c22 -21 20 -60 -4 -84
-17 -17 -33 -20 -100 -20 l-80 0 0 60 0 60 84 0 c64 0 88 -4 100 -16z"/>
<path d="M14752 1763 l3 -318 230 0 230 0 0 75 0 75 -142 3 -143 3 0 44 0 45
130 0 130 0 0 70 0 70 -130 0 -130 0 0 50 0 50 145 0 145 0 0 75 0 75 -235 0
-235 0 2 -317z"/>
<path d="M15270 2005 l0 -75 70 0 70 0 0 -245 0 -246 93 3 92 3 3 243 2 242
65 0 65 0 0 75 0 75 -230 0 -230 0 0 -75z"/>
<path d="M15783 1778 c-67 -167 -125 -311 -129 -321 -6 -16 1 -18 92 -15 l99
3 15 43 14 42 116 0 116 0 14 -42 15 -43 98 -3 c62 -2 98 1 95 7 -1 5 -59 150
-128 320 l-125 311 -85 0 -86 0 -121 -302z m238 -15 c12 -38 24 -74 27 -80 3
-10 -12 -13 -57 -13 -34 0 -61 1 -61 3 0 2 14 40 49 130 6 15 12 27 15 27 2 0
14 -30 27 -67z"/>
<path d="M1180 845 l0 -615 165 0 165 0 0 250 c0 273 4 298 55 338 41 32 123
31 163 -3 45 -38 52 -86 52 -349 l0 -236 165 0 165 0 0 278 c-1 323 -9 403
-47 474 -58 107 -149 153 -287 146 -92 -5 -158 -33 -226 -94 l-40 -36 -2 229
-3 228 -162 3 -163 2 0 -615z"/>
<path d="M3530 1427 c-145 -45 -229 -107 -277 -206 -25 -49 -28 -67 -28 -151
0 -76 4 -104 21 -140 57 -119 170 -179 439 -235 145 -30 222 -63 231 -99 8
-34 1 -51 -33 -73 -22 -15 -48 -18 -149 -18 -140 0 -163 9 -199 83 l-20 41
-149 1 -149 0 7 -58 c18 -164 155 -297 356 -348 92 -23 311 -15 394 15 84 30
135 62 188 119 60 64 78 108 85 203 10 131 -32 215 -149 296 -64 45 -170 84
-348 128 -119 30 -178 59 -186 91 -16 65 35 94 163 94 101 0 147 -19 165 -70
l10 -30 154 0 c176 0 168 -6 139 95 -33 111 -133 215 -250 256 -48 17 -89 22
-200 25 -124 4 -148 1 -215 -19z"/>
<path d="M210 1285 l0 -145 130 0 130 0 0 -455 0 -455 175 0 175 0 0 455 0
455 130 0 131 0 -3 143 -3 142 -432 3 -433 2 0 -145z"/>
<path d="M7450 830 l0 -600 170 0 169 0 3 141 3 141 95 -141 95 -140 188 -1
187 0 -145 218 -146 218 146 217 145 217 -188 0 -189 0 -94 -142 -94 -141 -3
306 -2 307 -170 0 -170 0 0 -600z"/>
<path d="M13580 830 l0 -600 175 0 175 0 0 30 0 30 46 -29 c94 -60 248 -68
356 -18 71 32 146 101 181 165 87 160 78 407 -21 537 -82 109 -183 157 -331
157 -87 1 -97 -2 -162 -35 l-69 -35 -2 197 -3 196 -172 3 -173 2 0 -600z m549
17 c61 -31 92 -139 73 -255 -15 -91 -48 -124 -130 -130 -55 -4 -61 -2 -95 28
-44 39 -57 80 -57 185 0 104 24 160 72 174 47 13 109 13 137 -2z"/>
<path d="M11000 825 l0 -595 180 0 180 0 2 376 3 376 83 -298 c45 -165 92
-334 103 -377 l21 -78 141 3 140 3 74 260 c40 143 84 303 98 356 13 53 29 107
34 120 7 16 10 -106 10 -358 l1 -383 175 0 175 0 0 595 0 595 -267 -2 -267 -3
-86 -350 c-52 -211 -89 -342 -92 -330 -4 11 -43 170 -88 353 l-82 332 -269 0
-269 0 0 -595z"/>
<path d="M12920 1141 c-206 -29 -377 -172 -424 -356 -68 -257 101 -522 373
-585 35 -8 88 -11 151 -7 210 13 369 114 452 287 27 55 32 79 36 162 4 83 1
108 -18 169 -72 224 -317 365 -570 330z m150 -286 c44 -23 63 -68 68 -161 5
-101 -16 -186 -54 -210 -38 -25 -112 -29 -154 -7 -57 30 -75 73 -74 178 0 106
14 155 55 190 36 30 112 34 159 10z"/>
<path d="M10310 1121 c-159 -51 -239 -142 -240 -271 0 -80 16 -126 62 -176 50
-54 114 -85 259 -124 120 -33 159 -51 159 -75 0 -46 -164 -46 -290 -1 -121 44
-107 48 -177 -58 l-62 -95 62 -34 c118 -65 252 -97 417 -97 248 0 407 134 387
328 -13 121 -91 191 -276 248 -183 56 -201 63 -201 84 0 47 81 52 225 14 55
-14 104 -26 109 -27 5 -1 36 43 68 98 l58 100 -33 17 c-145 77 -399 111 -527
69z"/>
<path d="M2543 1115 c-85 -18 -157 -59 -224 -125 -67 -67 -103 -126 -123 -205
-39 -149 -5 -286 106 -427 113 -144 387 -196 574 -109 75 35 191 144 232 219
l23 42 -159 0 c-149 0 -160 -1 -178 -21 -64 -71 -188 -61 -257 20 -52 63 -60
61 294 61 l321 0 -7 73 c-32 351 -276 543 -602 472z m200 -256 c32 -17 77 -61
77 -76 0 -10 -35 -13 -160 -13 l-161 0 16 31 c10 18 33 38 58 50 47 21 136 25
170 8z"/>
<path d="M4825 1113 c-53 -19 -102 -49 -147 -91 l-28 -26 0 52 0 52 -165 0
-165 0 0 -435 0 -435 165 0 165 0 0 250 c0 230 2 254 20 290 27 52 55 70 112
70 65 0 94 -16 118 -65 18 -38 20 -61 20 -293 l0 -252 165 0 165 0 0 293 c0
160 -4 318 -10 351 -16 102 -74 186 -155 229 -56 29 -191 34 -260 10z"/>
<path d="M5705 1120 c-199 -41 -345 -190 -377 -385 -22 -132 24 -273 126 -383
71 -76 151 -117 263 -137 165 -29 302 8 415 114 51 47 138 158 138 175 0 4
-67 6 -150 6 l-150 0 -46 -35 c-56 -43 -114 -47 -184 -12 -40 19 -90 75 -90
98 0 5 145 9 321 9 l322 0 -7 80 c-11 138 -68 273 -148 357 -40 42 -149 98
-216 112 -60 12 -158 13 -217 1z m188 -265 c36 -15 67 -48 67 -72 0 -10 -36
-13 -155 -13 -121 0 -155 3 -155 13 0 17 48 63 80 76 38 15 123 13 163 -4z"/>
<path d="M8638 1114 c-161 -39 -300 -167 -343 -318 -46 -160 -1 -328 123 -454
93 -95 209 -137 368 -135 111 2 190 30 276 98 50 39 158 173 158 197 0 4 -69
8 -153 8 -144 0 -155 -1 -173 -21 -50 -56 -122 -63 -204 -21 -37 18 -59 38
-72 62 l-18 35 321 3 322 2 -6 88 c-19 287 -210 475 -480 471 -34 0 -88 -7
-119 -15z m206 -258 c31 -13 76 -59 76 -77 0 -5 -72 -9 -160 -9 -91 0 -160 4
-160 9 0 20 53 71 83 80 48 14 124 13 161 -3z"/>
<path d="M6675 1099 c-126 -18 -236 -106 -298 -236 -30 -65 -32 -74 -32 -188
0 -143 22 -222 88 -310 112 -152 318 -199 488 -112 l69 35 0 -29 0 -29 175 0
175 0 0 435 0 435 -175 0 -175 0 0 -35 c0 -19 -2 -35 -4 -35 -3 0 -26 13 -53
30 -41 25 -149 53 -188 49 -5 -1 -37 -5 -70 -10z m266 -259 c70 -32 77 -267
10 -342 -22 -25 -37 -32 -79 -36 -64 -6 -105 10 -135 52 -20 28 -22 43 -22
141 0 96 3 114 22 146 13 20 33 41 45 47 27 14 122 9 159 -8z"/>
<path d="M9795 1089 c-50 -25 -90 -62 -126 -119 l-29 -45 0 88 0 87 -165 0
-165 0 0 -435 0 -435 170 0 170 0 0 168 c0 238 21 297 124 347 39 19 75 27
139 32 l87 6 0 157 0 157 -37 7 c-68 11 -127 6 -168 -15z"/>
</g>
</svg>
