<?xml version="1.0" standalone="no"?>
<!DOCTYPE svg PUBLIC "-//W3C//DTD SVG 20010904//EN"
 "http://www.w3.org/TR/2001/REC-SVG-20010904/DTD/svg10.dtd">
<svg version="1.0" xmlns="http://www.w3.org/2000/svg"
 width="2200.000000pt" height="252.000000pt" viewBox="0 0 2200.000000 252.000000"
 preserveAspectRatio="xMidYMid meet">

<g transform="translate(0.000000,252.000000) scale(0.100000,-0.100000)"
fill="#000000" stroke="none">
<path d="M2137 2073 c-4 -3 -7 -417 -7 -920 l0 -913 260 0 260 0 0 38 c0 20 5
196 10 390 9 330 11 356 30 387 25 41 55 61 113 75 39 10 49 9 83 -8 60 -31
91 -70 108 -137 13 -48 16 -124 16 -402 l0 -343 249 0 248 0 6 68 c11 106 8
797 -3 902 -12 115 -40 177 -116 259 -47 51 -83 75 -173 115 -35 16 -343 14
-349 -2 -2 -6 -12 -12 -22 -12 -20 0 -126 -68 -155 -99 -10 -12 -22 -21 -27
-21 -4 0 -8 71 -8 158 0 86 -3 228 -7 315 l-6 157 -252 0 c-138 0 -255 -3
-258 -7z"/>
<path d="M5750 2070 c-8 -5 -41 -10 -72 -10 -31 0 -69 -5 -83 -10 -14 -6 -59
-17 -98 -25 -40 -8 -84 -24 -99 -35 -15 -11 -32 -20 -38 -20 -6 0 -38 -18 -72
-40 -69 -45 -154 -139 -163 -182 -4 -15 -11 -28 -16 -28 -5 0 -9 -10 -9 -23 0
-13 -5 -28 -11 -34 -8 -8 -12 -64 -12 -168 0 -104 4 -160 12 -168 6 -6 11 -19
11 -28 0 -64 141 -212 247 -260 37 -17 77 -35 88 -40 28 -13 199 -58 262 -68
28 -5 58 -13 65 -17 7 -5 33 -11 58 -15 122 -20 217 -58 261 -105 l24 -26 -33
-29 c-18 -16 -39 -29 -47 -29 -8 0 -15 -4 -15 -9 0 -5 -26 -12 -57 -16 -32 -3
-68 -11 -80 -17 -12 -6 -30 -7 -40 -3 -10 4 -54 13 -97 21 -44 7 -91 21 -105
32 -14 10 -40 46 -59 80 l-34 62 -235 0 -236 0 7 -93 c4 -50 11 -96 17 -102 5
-5 9 -18 9 -29 0 -92 242 -335 364 -367 23 -5 55 -16 71 -24 17 -7 77 -21 134
-31 128 -21 344 -16 405 10 21 9 47 16 58 16 70 0 238 84 324 162 111 102 147
193 148 373 1 142 -14 201 -72 290 -51 78 -146 146 -287 205 -105 44 -141 56
-229 77 -94 21 -128 30 -161 41 -16 6 -61 20 -100 32 -129 40 -169 82 -130
136 28 41 75 54 197 54 150 0 187 -17 223 -103 10 -25 24 -39 43 -44 35 -10
399 -10 435 0 25 7 27 11 27 60 0 64 -22 141 -62 220 -34 68 -169 214 -206
224 -14 3 -41 17 -60 29 -19 13 -50 26 -71 29 -20 4 -54 13 -76 21 -23 8 -66
14 -97 14 -31 0 -60 5 -63 10 -8 13 -145 13 -165 0z"/>
<path d="M724 2003 c2 -16 5 -119 5 -230 l1 -203 73 0 c39 0 123 -3 185 -7
l112 -6 0 -567 c0 -312 3 -608 6 -658 l7 -92 267 0 267 0 6 437 c4 240 7 536
7 658 l0 222 113 6 c61 4 145 7 185 7 l72 0 0 230 0 230 -655 0 -656 0 5 -27z"/>
<path d="M11140 1135 l0 -895 268 2 267 3 6 130 c4 72 7 148 8 169 l1 39 26
-39 c15 -21 30 -40 35 -42 5 -2 9 -8 9 -12 0 -5 20 -37 43 -72 24 -35 59 -89
78 -120 l34 -58 292 0 c277 0 293 1 293 18 0 22 -111 202 -277 451 -68 101
-123 187 -123 192 0 5 80 130 178 277 98 147 191 288 206 313 l27 47 -128 7
c-70 4 -204 5 -298 2 -168 -6 -170 -6 -192 -32 -13 -14 -23 -32 -23 -40 0 -8
-8 -20 -18 -27 -15 -11 -48 -55 -62 -83 -3 -5 -23 -37 -44 -69 -37 -56 -40
-59 -48 -37 -4 13 -11 192 -15 397 l-6 374 -269 0 -268 0 0 -895z"/>
<path d="M19940 1135 l0 -895 260 0 c247 0 261 1 280 20 24 24 24 24 74 2 23
-10 57 -24 76 -31 52 -18 225 -25 295 -11 33 6 76 14 95 17 19 3 42 11 50 17
8 7 36 24 61 39 111 63 244 248 269 372 18 91 24 375 10 435 -31 131 -110 256
-211 335 -35 27 -68 55 -72 62 -4 7 -18 13 -30 13 -13 0 -28 5 -33 10 -28 28
-311 60 -374 42 -57 -17 -154 -48 -171 -56 -15 -6 -17 20 -25 256 l-9 263
-272 3 -273 2 0 -895z m760 14 c31 -7 58 -23 88 -52 l42 -41 0 -159 c0 -187
-8 -212 -77 -253 -40 -23 -53 -26 -100 -20 -95 11 -130 38 -159 126 -12 38
-18 84 -18 150 1 153 32 230 101 248 50 13 70 13 123 1z"/>
<path d="M16226 1998 c-3 -13 -6 -413 -6 -890 l0 -868 261 0 c160 0 268 4 280
10 18 10 19 23 19 198 0 315 12 685 22 668 12 -21 35 -104 52 -181 7 -33 18
-70 24 -82 7 -12 12 -33 12 -47 0 -14 5 -28 10 -31 6 -3 10 -19 10 -34 0 -15
4 -31 10 -37 5 -5 17 -47 25 -93 9 -46 25 -105 36 -133 10 -27 19 -60 19 -73
0 -13 4 -26 9 -29 5 -3 12 -21 15 -40 4 -19 13 -48 22 -65 l15 -31 214 0 214
0 21 73 c12 39 36 124 55 187 38 131 148 525 163 585 6 22 13 52 16 68 4 15
11 27 16 27 6 0 10 -170 10 -470 l0 -471 269 3 c148 2 273 7 278 11 11 11 11
1743 0 1754 -11 11 -709 17 -772 6 -43 -7 -50 -12 -53 -33 -2 -14 -9 -43 -17
-65 -8 -22 -17 -62 -20 -90 -4 -27 -13 -72 -22 -100 -29 -96 -33 -112 -33
-136 0 -14 -4 -29 -9 -35 -10 -10 -24 -67 -46 -181 -8 -40 -19 -81 -24 -92 -6
-11 -11 -33 -11 -50 0 -16 -4 -33 -10 -36 -5 -3 -10 -19 -10 -35 0 -34 -9 -60
-21 -60 -9 0 -5 -15 -89 335 -77 321 -124 501 -144 549 l-15 36 -394 0 -395 0
-6 -22z"/>
<path d="M15325 1610 c-11 -5 -34 -9 -51 -9 -16 -1 -39 -8 -50 -16 -10 -8 -29
-15 -41 -15 -13 0 -23 -4 -23 -8 0 -5 -17 -14 -38 -20 -82 -25 -170 -110 -218
-212 -50 -106 -37 -298 27 -389 46 -65 150 -151 182 -151 8 0 20 -6 26 -14 6
-7 29 -16 52 -20 40 -6 46 -9 107 -39 19 -9 42 -17 53 -17 26 0 171 -49 193
-66 36 -26 6 -34 -124 -34 -71 0 -131 4 -134 9 -3 5 -20 11 -38 14 -42 7 -133
39 -186 66 -23 12 -45 21 -51 21 -8 0 -53 -64 -91 -129 -8 -14 -18 -28 -22
-31 -11 -9 -78 -112 -78 -120 0 -5 -5 -10 -11 -12 -42 -14 57 -86 186 -136 33
-13 64 -28 69 -33 6 -5 21 -9 33 -9 13 0 34 -7 46 -15 12 -7 85 -24 162 -36
211 -32 399 -19 508 37 16 8 35 14 42 14 42 0 177 126 215 199 53 105 63 217
29 327 -19 62 -29 77 -98 144 -80 80 -151 118 -286 155 -33 9 -75 23 -93 31
-18 8 -44 14 -57 14 -13 0 -26 4 -30 9 -3 6 -25 13 -50 17 -46 6 -72 25 -60
44 3 5 14 10 24 10 9 0 22 5 29 12 9 9 18 9 37 0 14 -7 43 -12 64 -12 21 0 56
-6 77 -14 22 -7 65 -16 96 -20 32 -4 60 -12 63 -17 8 -12 71 -12 94 1 20 10
78 104 136 219 31 62 35 78 26 98 -6 12 -17 23 -25 23 -8 0 -21 6 -28 13 -7 7
-60 28 -118 46 -58 18 -121 38 -140 44 -19 6 -57 15 -85 20 -68 13 -325 18
-350 7z"/>
<path d="M18940 1610 c-8 -5 -26 -10 -38 -10 -13 0 -36 -6 -50 -14 -15 -7 -38
-18 -52 -23 -73 -29 -102 -46 -175 -106 -44 -36 -94 -80 -112 -98 -36 -38
-113 -173 -113 -198 0 -10 -4 -21 -9 -26 -4 -6 -16 -45 -26 -88 -16 -70 -17
-92 -7 -209 12 -130 17 -147 75 -268 55 -113 227 -276 334 -316 27 -10 54 -24
61 -31 7 -7 23 -13 36 -13 12 0 26 -4 32 -9 14 -15 129 -31 214 -31 142 0 256
28 390 95 154 77 249 171 329 325 64 122 73 169 69 338 -3 140 -5 151 -37 224
-76 178 -191 307 -338 379 -111 54 -137 64 -196 78 -58 14 -366 14 -387 1z
m228 -441 c53 -13 83 -37 118 -91 22 -35 24 -47 24 -177 0 -82 -4 -142 -10
-146 -5 -3 -10 -15 -10 -25 0 -64 -124 -124 -210 -101 -88 24 -117 76 -137
249 -7 66 19 182 53 234 21 33 56 52 122 67 2 1 24 -4 50 -10z"/>
<path d="M4190 1588 c-25 -5 -61 -11 -80 -14 -19 -3 -44 -9 -55 -14 -11 -5
-37 -14 -58 -20 -68 -21 -210 -123 -258 -187 -24 -32 -47 -61 -52 -64 -29 -22
-97 -209 -97 -269 0 -22 -7 -60 -16 -86 -14 -42 -14 -49 0 -79 9 -18 16 -53
16 -78 0 -25 4 -48 9 -51 4 -3 11 -24 15 -47 20 -125 193 -326 347 -403 39
-20 84 -36 98 -36 15 0 31 -4 37 -10 34 -34 354 -38 429 -5 161 70 201 95 277
172 81 82 160 178 185 226 29 56 26 57 -235 57 -219 0 -241 -2 -263 -19 -83
-65 -156 -77 -251 -41 -53 19 -118 69 -118 89 0 7 50 11 143 12 78 1 282 4
452 8 l310 6 3 63 c2 35 -6 118 -18 185 -22 132 -62 232 -138 344 -62 91 -184
194 -248 209 -16 3 -38 12 -49 19 -11 7 -36 15 -55 18 -19 3 -60 11 -90 16
-68 12 -180 12 -240 -1z m222 -438 c20 -6 49 -25 63 -42 25 -30 26 -33 9 -39
-26 -10 -384 -11 -384 -1 0 11 71 78 90 85 27 10 184 7 222 -3z"/>
<path d="M7440 1594 c-19 -3 -44 -9 -55 -13 -105 -47 -135 -64 -165 -96 -30
-31 -35 -33 -42 -18 -3 10 -7 33 -7 51 l-1 32 -260 0 -260 0 0 -655 0 -655
243 0 c135 0 249 5 257 10 13 8 16 65 20 377 5 344 7 371 26 413 11 25 27 50
35 57 23 19 123 53 129 44 3 -4 15 -11 27 -15 13 -4 45 -25 73 -47 l50 -39 0
-243 c0 -133 3 -313 7 -400 l6 -157 251 2 251 3 0 510 0 510 -27 59 c-46 96
-115 186 -162 207 -22 11 -48 23 -56 28 -8 4 -26 13 -38 20 -24 13 -237 23
-302 15z"/>
<path d="M8700 1588 c-25 -5 -61 -11 -80 -14 -19 -3 -44 -9 -55 -14 -11 -5
-36 -14 -56 -20 -31 -9 -96 -48 -190 -115 -41 -29 -102 -103 -133 -160 -14
-27 -30 -57 -35 -65 -41 -73 -41 -72 -41 -297 0 -177 3 -223 15 -239 8 -10 15
-25 15 -33 0 -28 83 -152 137 -207 70 -71 163 -139 211 -154 20 -7 41 -16 46
-21 6 -5 20 -9 32 -9 12 0 39 -7 60 -16 25 -10 83 -18 168 -21 157 -7 215 5
353 72 76 37 107 60 179 132 86 86 184 222 184 256 0 16 -19 17 -251 17 l-252
0 -43 -40 c-42 -39 -46 -40 -112 -40 -49 0 -81 6 -113 21 -48 23 -99 66 -99
84 0 14 313 25 677 25 214 0 223 1 223 19 0 11 5 23 10 26 6 4 10 -9 10 -32 0
-52 64 -243 82 -243 4 0 8 -4 8 -10 0 -12 90 -130 99 -130 3 0 23 -15 43 -33
42 -37 136 -87 165 -87 11 0 24 -5 31 -12 8 -8 58 -12 160 -13 155 0 196 7
281 52 24 13 46 23 48 23 2 0 8 -11 13 -25 l10 -25 270 0 270 0 2 585 c1 322
3 615 3 653 l0 67 -277 3 -278 2 0 -24 c0 -35 -13 -39 -52 -17 -90 54 -260 69
-428 38 -98 -18 -148 -37 -174 -66 -11 -12 -25 -21 -32 -21 -6 0 -46 -36 -87
-80 -73 -78 -127 -163 -127 -204 0 -12 -7 -30 -15 -40 -8 -11 -15 -38 -15 -60
-1 -23 -9 -57 -20 -76 -19 -35 -19 -35 -20 -8 0 38 -47 183 -80 248 -40 80
-157 209 -232 258 -35 23 -70 42 -77 42 -7 0 -27 6 -44 14 -18 8 -48 17 -67
20 -19 3 -57 9 -85 15 -61 12 -174 12 -235 -1z m210 -438 c32 -6 53 -17 72
-41 16 -18 28 -37 28 -41 0 -10 -361 -10 -377 0 -17 11 9 47 51 73 34 21 143
26 226 9z m1510 -18 c56 -27 71 -85 67 -252 -5 -170 -16 -202 -84 -232 -88
-40 -190 -23 -229 38 -45 68 -57 240 -24 345 25 81 43 106 83 118 43 13 143 4
187 -17z"/>
<path d="M12925 1588 c-27 -5 -67 -11 -87 -14 -21 -4 -38 -10 -38 -14 0 -5
-17 -11 -38 -15 -89 -15 -268 -155 -344 -269 -42 -63 -78 -147 -78 -181 0 -12
-6 -27 -12 -33 -9 -9 -13 -53 -13 -150 0 -128 3 -143 33 -232 18 -52 49 -120
69 -150 47 -71 181 -206 224 -225 19 -8 41 -19 49 -23 53 -30 84 -42 103 -42
12 0 40 -7 62 -15 22 -8 63 -14 92 -15 29 0 63 -5 76 -11 30 -14 185 4 230 26
16 8 35 15 41 15 20 0 132 57 182 93 98 71 278 306 259 337 -4 6 -105 10 -254
10 l-249 0 -40 -40 c-39 -39 -41 -40 -109 -40 -53 0 -81 6 -119 24 -50 24
-104 68 -104 84 0 12 262 22 603 22 l287 0 0 138 c0 168 -11 214 -86 364 -43
86 -70 126 -115 170 -58 56 -171 138 -191 138 -5 0 -24 6 -41 14 -18 8 -48 17
-67 20 -19 3 -57 9 -85 15 -60 12 -172 12 -240 -1z m274 -472 c29 -29 37 -42
28 -48 -17 -11 -359 -10 -376 1 -11 7 -9 14 13 35 46 47 81 56 193 54 l102 -3
40 -39z"/>
<path d="M14565 1561 c-3 -6 -15 -11 -27 -11 -39 0 -136 -68 -169 -120 -18
-27 -36 -47 -40 -44 -5 3 -9 41 -9 85 l0 79 -260 0 -260 0 0 -655 0 -655 263
2 262 3 2 95 c5 204 23 457 35 495 17 57 137 175 177 175 16 0 45 7 64 15 24
10 70 15 137 15 l100 0 2 225 c1 124 2 237 2 252 1 24 -4 29 -39 37 -64 14
-232 19 -240 7z"/>
</g>
</svg>
